# xmcd
#
# Track frame offsets:
#	150
#	10260
#	23247
#	34717
#	47012
#	58820
#	68415
#	80710
#	95722
#	108285
#	120760
#	135060
#	144690
#	154797
#	165357
#	180132
#	191475
#	203667
#	213592
#	224137
#
# Disc length: 3149 seconds
#
# Revision: 3
# Processed by: cddbd v1.5.2PL0 Copyright (c) Steve Scherf et al.
# Submitted via: dBpowerAMP V4.0
#
DISCID=0a0c4b14
DTITLE=Various Artist - Country Love - Sentimental Country
DYEAR=1997
DGENRE=Country
TTITLE0=Kitty Wells - I Can't Stop Loving You
TTITLE1=Charlie Rich - The Most Beautiful Girl
TTITLE2=Skeeter Davis - Gonna Get Along Without You Now
TTITLE3=Moe Bandy - Street Of Laredo
TTITLE4=Wilma Burgess - Misty Blue
TTITLE5=Bill Phillips - The Company You Keep
TTITLE6=Sammi Smith - Send Me the Pillow You Dream On
TTITLE7=Ray Price - The Old Rugged Cross
TTITLE8=Wanda Jackson - Crazy
TTITLE9=Charlie Rich - Behind Closed Doors
TTITLE10=Margo Smith - It Only Hurts For A Little While
TTITLE11=Roy Drusky - Second Hand Rose
TTITLE12=Susan Raye - Pitty Pitty Patter
TTITLE13=Hank Locklin - Let Me Be The One
TTITLE14=Marion Worth - Shake Me I Rattle
TTITLE15=Don Gibson - Just One Time
TTITLE16=Lynn Anderson - How Can I Unlove You?
TTITLE17=Ray Price - Make The World Go Away
TTITLE18=Barbara Fairchild - Kid Stuff
TTITLE19=Merle Haggard - I Take A Lot Of Pride In What I Am
EXTD=
EXTT0=
EXTT1=
EXTT2=
EXTT3=
EXTT4=
EXTT5=
EXTT6=
EXTT7=
EXTT8=
EXTT9=
EXTT10=
EXTT11=
EXTT12=
EXTT13=
EXTT14=
EXTT15=
EXTT16=
EXTT17=
EXTT18=
EXTT19=
PLAYORDER=
